#tb 0: 1/1000
0,          0,          0,        0,      408, f3f2cd8f157466ff23dace85d77367ce
0,         33,         33,        0,      408, 639d9b70a14062e95559c12d2b597f91
0,         66,         66,        0,      408, b2ee07a6656af583f19593229fa11848
0,        100,        100,        0,      408, 74e3b5ab4c798a0afe745694e871bbd5
0,        133,        133,        0,      408, 35f1c30d0f8678f319a392a6c53b5989
0,        166,        166,        0,      408, 07e2b4c0b92a394bfb11124fe80476f0
0,        200,        200,        0,      408, 7864bd20dfc5280e5f027d67ea22bf30
0,        233,        233,        0,      408, 10a2925a7b91dfa9b82de76069388fd4
0,        266,        266,        0,      408, 79cc7f7a149e8d6e04e065f75e63733c
0,        300,        300,        0,      408, 6453d10d97532d9bb03f7c06cba9fca0
